<svg fill="none" height="60" viewBox="0 0 60 60" width="60" xmlns="http://www.w3.org/2000/svg"><path d="m0 7.5c0-4.14214 3.35786-7.5 7.5-7.5h45c4.1421 0 7.5 3.35786 7.5 7.5v45c0 4.1421-3.3579 7.5-7.5 7.5h-45c-4.14214 0-7.5-3.3579-7.5-7.5z" fill="#009e8c"/><path d="m0 45.9375h60v6.5625c0 4.1421-3.3579 7.5-7.5 7.5h-45c-4.14214 0-7.5-3.3579-7.5-7.5z" fill="#008575"/><path d="m52.5.00000029c4.1421.00000018 7.5 3.35786971 7.5 7.49999971v45.2419c0 4.0086-3.2495 7.2581-7.2581 7.2581-3.758 0-6.8044-3.0464-6.8044-6.8044v-53.1956z" fill="#00b8a2"/><path d="m45.9375 53.1956c0 3.758 3.0465 6.8044 6.8044 6.8044 4.0086 0 7.2581-3.2495 7.2581-7.2581 0-3.7579-3.0464-6.8044-6.8044-6.8044h-7.2581z" fill="#00a390"/><g fill="#fff"><path d="m17.0894 12.292-10.99565 3.5727 4.01535 5.0379 10.9956-3.5727 4.0154 5.0378 10.9956-3.5727-4.0153-5.0379-10.9957 3.5728z"/><path d="m20.8174 23.5314-10.99561 3.5727 4.01531 5.0379 10.9957-3.5727 4.0153 5.0378 10.9957-3.5727-4.0154-5.0379-10.9956 3.5728z"/></g></svg>