<svg width="16" height="16" viewBox="0 0 16 16" fill="none" xmlns="http://www.w3.org/2000/svg">
<path fill-rule="evenodd" clip-rule="evenodd" d="M2 0C0.895431 0 0 0.895432 0 2V13.999C0 15.1036 0.895431 15.999 2 15.999H14C15.1046 15.999 16 15.1036 16 13.999V2C16 0.895431 15.1046 0 14 0H2ZM3 4.49997C3 4.22384 3.22386 4 3.5 4C4.60457 4 5.5 4.89538 5.5 5.99988V11.4995C5.5 11.7757 5.27614 11.9995 5 11.9995C3.89543 11.9995 3 11.1041 3 9.99964V4.49997ZM6.75 5.49991C6.75 5.22378 6.97386 4.99994 7.25 4.99994C8.35457 4.99994 9.25 5.89532 9.25 6.99982V10.9996C9.25 11.5518 8.80228 11.9995 8.25 11.9995H7.75C7.19772 11.9995 6.75 11.5518 6.75 10.9996V5.49991ZM10.5 7.49979C10.5 7.22366 10.7239 6.99982 11 6.99982C12.1046 6.99982 13 7.8952 13 8.9997V10.9996C13 11.5518 12.5523 11.9995 12 11.9995H11.5C10.9477 11.9995 10.5 11.5518 10.5 10.9996V7.49979Z" fill="#2EC0B6"/>
</svg>
