<svg fill="none" height="60" viewBox="0 0 60 60" width="60" xmlns="http://www.w3.org/2000/svg"><path d="m0 7.5c0-4.14214 3.35786-7.5 7.5-7.5h45c4.1421 0 7.5 3.35786 7.5 7.5v45c0 4.1421-3.3579 7.5-7.5 7.5h-45c-4.14214 0-7.5-3.3579-7.5-7.5z" fill="#109968"/><path d="m0 45.9375h60v6.5625c0 4.1421-3.3579 7.5-7.5 7.5h-45c-4.14214 0-7.5-3.3579-7.5-7.5z" fill="#007d53"/><path d="m52.5.00000029c4.1421.00000018 7.5 3.35786971 7.5 7.49999971v45.2419c0 4.0086-3.2495 7.2581-7.2581 7.2581-3.758 0-6.8044-3.0464-6.8044-6.8044v-53.1956z" fill="#38b27f"/><path d="m45.9375 53.1956c0 3.758 3.0465 6.8044 6.8044 6.8044 4.0086 0 7.2581-3.2495 7.2581-7.2581 0-3.7579-3.0464-6.8044-6.8044-6.8044h-7.2581z" fill="#21a170"/><path clip-rule="evenodd" d="m15.488 12.7178c1.9574-1.9532 5.0351-2.89433 8.6905-2.5796 3.8962.3355 6.172 2.123 7.3685 4.1147.5637.9383.8418 1.8441.9809 2.5149.0701.3381.1069.626.1263.842.0097.1083.0152.1995.0182.2712.0015.0358.0024.0668.0029.0928.0003.0129.0005.0246.0006.035l.0001.0146v.0065.0031c0 .0015 0 .003-2.3437.003-2.3438 0-2.3438.0014-2.3438.0028v.0028l.0001.0051v.0092c.0001.0055.0002.01.0002.0135.0002.0069.0003.0097.0002.0087 0-.0022-.0008-.0192-.0035-.0491-.0054-.0604-.0183-.1687-.0474-.3093-.0595-.2866-.1786-.6689-.4093-1.0529-.3922-.6528-1.2938-1.6466-3.7524-1.8583-2.6994-.2325-4.2617.5133-4.9774 1.2274-.6692.6678-.7957 1.4555-.45 2.2264.2091.4663.7298.9695 2 1.469 1.0904.4289 2.3614.7198 3.8272 1.0553.2603.0596.5268.1206.7995.184 1.6517.3842 3.6315.8779 5.194 1.8163.8189.4918 1.6169 1.1573 2.2059 2.0802.6024.9438.9056 2.0319.9056 3.2251 0 3.5154-2.3342 5.7821-4.9717 6.8645-2.5864 1.0616-5.7668 1.1697-8.5728.4141-3.3217-.8945-5.1777-2.7641-6.1407-4.5764-.4632-.8718-.696-1.6833-.8139-2.2885-.0593-.304-.0906-.5616-.1072-.7564-.0083-.0976-.013-.1802-.0156-.2457-.0013-.0328-.0021-.0614-.0025-.0856-.0002-.0121-.0004-.0231-.0005-.0329v-.014-.0063l-.0001-.0031c.0001-.0014.0001-.0029 2.3438.0008s2.3437.0023 2.3437.0009v-.0027-.0052-.0093c-.0001-.0057-.0001-.0105-.0002-.0144-.0001-.0078-.0003-.0121-.0003-.013v-.0002s.0004.0113.0022.0326c.004.0462.0139.1361.0377.258.048.2468.1482.6013.3523.9855.3719.6998 1.189 1.7027 3.2202 2.2496 1.9349.5211 4.0502.4012 5.5742-.2242 1.473-.6046 2.064-1.484 2.064-2.5281 0-.3701-.0844-.57-.1695-.7033-.0985-.1543-.2877-.3551-.6681-.5836-.836-.5021-2.1026-.8644-3.8424-1.269-.2294-.0534-.4677-.1076-.7125-.1633-1.4447-.3286-3.1186-.7094-4.5679-1.2794-1.7088-.6721-3.6096-1.7905-4.5615-3.9133-1.1674-2.6031-.5878-5.463 1.4161-7.4625z" fill="#fff" fill-rule="evenodd"/></svg>