<svg fill="none" height="60" viewBox="0 0 60 60" width="60" xmlns="http://www.w3.org/2000/svg" xmlns:xlink="http://www.w3.org/1999/xlink"><clipPath id="a"><path d="m7.5 7.5h30.9375v30.9375h-30.9375z"/></clipPath><path d="m0 7.5c0-4.14214 3.35786-7.5 7.5-7.5h45c4.1421 0 7.5 3.35786 7.5 7.5v45c0 4.1421-3.3579 7.5-7.5 7.5h-45c-4.14214 0-7.5-3.3579-7.5-7.5z" fill="#1885de"/><path d="m0 45.9375h60v6.5625c0 4.1421-3.3579 7.5-7.5 7.5h-45c-4.14214 0-7.5-3.3579-7.5-7.5z" fill="#0070cc"/><path d="m52.5.00000029c4.1421.00000018 7.5 3.35786971 7.5 7.49999971v45.2419c0 4.0086-3.2495 7.2581-7.2581 7.2581-3.758 0-6.8044-3.0464-6.8044-6.8044v-53.1956z" fill="#40a9ff"/><path d="m45.9375 53.1956c0 3.758 3.0465 6.8044 6.8044 6.8044 4.0086 0 7.2581-3.2495 7.2581-7.2581 0-3.7579-3.0464-6.8044-6.8044-6.8044h-7.2581z" fill="#1e8feb"/><g clip-path="url(#a)"><path d="m19.3826 7.77148-10.9783 10.97832 5.5245 5.5244 3.3145-3.3145-2.2099-2.2099 4.3492-4.3492 4.3534 4.3535-11.1151 11.173 6.6872 6.6352h11.6575l6.7592-6.7067-6.808-6.2876h-1.386l-4.5939 4.6211v.0664h4.1465l1.8639 1.7215-1.9126 1.8978h-7.7957l-1.9847-1.9693 5.6826-5.7122v.0065l.6281-.6318h-.006l4.7975-4.8225z" fill="#fff"/></g></svg>