<svg fill="none" height="60" viewBox="0 0 60 60" width="60" xmlns="http://www.w3.org/2000/svg"><path clip-rule="evenodd" d="m5.625 48.2812c-3.1066 0-5.625-2.5183-5.625-5.625v-35.1562c0-3.1066 2.5184-5.625 5.625-5.625h11.25c1.2171 0 2.4013.39475 3.375 1.125l4.5 3.375c.9737.73025 2.1579 1.125 3.375 1.125h26.25c3.1066 0 5.625 2.5184 5.625 5.625v29.5312c0 3.1066-2.5184 5.625-5.625 5.625z" fill="#0065dc" fill-rule="evenodd"/><path d="m0 20.625c0-4.1421 3.35786-7.5 7.5-7.5h45c4.1421 0 7.5 3.3579 7.5 7.5v28.125c0 4.1421-3.3579 7.5-7.5 7.5h-45c-4.14214 0-7.5-3.3579-7.5-7.5z" fill="#1983ff"/><path clip-rule="evenodd" d="m29.9997 21.5625 11.2867 11.2868-2.6516 2.6516-6.7601-6.7601v16.9623h-3.75v-16.9623l-6.7602 6.7601-2.6516-2.6516z" fill="#fff" fill-rule="evenodd"/></svg>