<svg fill="none" height="60" viewBox="0 0 60 60" width="60" xmlns="http://www.w3.org/2000/svg"><path d="m0 7.5c0-4.14214 3.35786-7.5 7.5-7.5h45c4.1421 0 7.5 3.35786 7.5 7.5v45c0 4.1421-3.3579 7.5-7.5 7.5h-45c-4.14214 0-7.5-3.3579-7.5-7.5z" fill="#009baf"/><path d="m0 45.9375h60v6.5625c0 4.1421-3.3579 7.5-7.5 7.5h-45c-4.14214 0-7.5-3.3579-7.5-7.5z" fill="#007f8f"/><path d="m52.5.00000029c4.1421.00000018 7.5 3.35786971 7.5 7.49999971v45.2419c0 4.0086-3.2495 7.2581-7.2581 7.2581-3.758 0-6.8044-3.0464-6.8044-6.8044v-53.1956z" fill="#2eb1c5"/><path d="m45.9375 53.1956c0 3.758 3.0465 6.8044 6.8044 6.8044 4.0086 0 7.2581-3.2495 7.2581-7.2581 0-3.7579-3.0464-6.8044-6.8044-6.8044h-7.2581z" fill="#06a0b5"/><g fill="#fff"><path d="m35.8594 10.0781h-11.0476l-5.039 7.0313h-9.6947v4.6875h12.1023l5.039-7.0313h3.9525v16.4063h-16.4063v-6.5625h-4.6875v11.25h25.7813z"/><path d="m20.6246 10.0781h-7.5465l-3 4.2188h7.5465z"/></g></svg>