<svg fill="none" height="60" viewBox="0 0 60 60" width="60" xmlns="http://www.w3.org/2000/svg"><path d="m0 7.5c0-4.14214 3.35786-7.5 7.5-7.5h45c4.1421 0 7.5 3.35786 7.5 7.5v45c0 4.1421-3.3579 7.5-7.5 7.5h-45c-4.14214 0-7.5-3.3579-7.5-7.5z" fill="#009baf"/><path d="m0 45.9375h60v6.5625c0 4.1421-3.3579 7.5-7.5 7.5h-45c-4.14214 0-7.5-3.3579-7.5-7.5z" fill="#007f8f"/><path d="m52.5.00000029c4.1421.00000018 7.5 3.35786971 7.5 7.49999971v45.2419c0 4.0086-3.2495 7.2581-7.2581 7.2581-3.758 0-6.8044-3.0464-6.8044-6.8044v-53.1956z" fill="#2eb1c5"/><path d="m45.9375 53.1956c0 3.758 3.0465 6.8044 6.8044 6.8044 4.0086 0 7.2581-3.2495 7.2581-7.2581 0-3.7579-3.0464-6.8044-6.8044-6.8044h-7.2581z" fill="#06a0b5"/><g fill="#fff"><path d="m36.7969 9.14062v12.18748h-8.6719v-4.6875h3.9844v-2.8125h-11.9532l4.6876-4.68748z"/><path clip-rule="evenodd" d="m9.14062 16.6406h15.46878v12.6563h-15.46878zm4.68748 4.6875v3.2813h6.0938v-3.2813z" fill-rule="evenodd"/><path d="m28.125 29.2969h3.9844v2.8125h-11.9532l4.6876 4.6875h11.9531v-12.1875h-8.6719z"/></g></svg>