<svg xmlns="http://www.w3.org/2000/svg" width="256" height="256" fill="none" xmlns:v="https://vecta.io/nano"><path d="M10.688 50.668c0-22.091 17.909-40 40-40h154.667c22.092 0 40 17.909 40 40v154.667c0 22.091-17.908 40-40 40H50.688c-22.091 0-40-17.909-40-40V50.668z" fill="url(#A)"/><path fill-rule="evenodd" d="M92 76a8 8 0 0 0-8 8v88a8 8 0 0 0 8 8h72a8 8 0 0 0 8-8V84a8 8 0 0 0-8-8H92zm18 15a8 8 0 0 0-8 8v10a8 8 0 0 0 8 8h36a8 8 0 0 0 8-8V99a8 8 0 0 0-8-8h-36zm-8 44a6 6 0 0 1 6-6h27a6 6 0 1 1 0 12h-27a6 6 0 0 1-6-6zm6 18a6 6 0 1 0 0 12h14a6 6 0 1 0 0-12h-14z" fill="#fff"/><defs><linearGradient id="A" x1="24.021" y1="13.869" x2="278.773" y2="199.304" gradientUnits="userSpaceOnUse"><stop stop-color="#30b3fd"/><stop offset="1" stop-color="#5589ff"/></linearGradient></defs></svg>