<svg fill="none" height="60" viewBox="0 0 60 60" width="60" xmlns="http://www.w3.org/2000/svg"><path d="m0 7.5c0-4.14214 3.35786-7.5 7.5-7.5h45c4.1421 0 7.5 3.35786 7.5 7.5v45c0 4.1421-3.3579 7.5-7.5 7.5h-45c-4.14214 0-7.5-3.3579-7.5-7.5z" fill="#6d5afa"/><path d="m0 45.9375h60v6.5625c0 4.1421-3.3579 7.5-7.5 7.5h-45c-4.14214 0-7.5-3.3579-7.5-7.5z" fill="#5c49e6"/><path d="m52.5.00000029c4.1421.00000018 7.5 3.35786971 7.5 7.49999971v45.2419c0 4.0086-3.2495 7.2581-7.2581 7.2581-3.758 0-6.8044-3.0464-6.8044-6.8044v-53.1956z" fill="#8675ff"/><path d="m45.9375 53.1956c0 3.758 3.0465 6.8044 6.8044 6.8044 4.0086 0 7.2581-3.2495 7.2581-7.2581 0-3.7579-3.0464-6.8044-6.8044-6.8044h-7.2581z" fill="#715ef7"/><g fill="#fff"><path d="m28.2435 32.1088c1.3591 0 2.4609-1.1018 2.4609-2.461 0-1.3591-1.1018-2.4609-2.4609-2.4609-1.3592 0-2.461 1.1018-2.461 2.4609 0 1.3592 1.1018 2.461 2.461 2.461z"/><path clip-rule="evenodd" d="m25.5441 6.32812-18.24137 10.86528 4.54787 8.0357-4.52424 2.6072 2.22344 3.8583 2.7903-1.6079c.1246 1.6483.5946 3.207 1.4186 4.5913 1.7756 2.9832 4.9865 4.8023 8.979 5.0151 4.5925.2447 8.4612-.7564 11.254-2.6193 2.7935-1.8634 4.5624-4.6541 4.5624-7.7775 0-1.8175-.438-3.5195-1.4147-4.9187-.6841-.98-1.5809-1.7365-2.6302-2.2628-.269-1.3879-.8901-2.6952-1.8215-3.7539l4.5184-2.6038-2.2235-3.8583-4.5155 2.6022zm1.064 10.39668-2.5921-4.3032-10.6926 6.3688 2.3856 4.2152zm-9.0228 15.6755c-.7403-1.2437-1.0554-2.9482-.6448-4.9647l11.6729-6.7268c.9554.5559 1.5947 1.6536 1.5947 2.9882v1.7011l1.6413.4471c.79.2153 1.3027.6003 1.6385 1.0813.348.4986.6131 1.2576.6131 2.3698 0 1.3297-.7478 2.8505-2.5804 4.073-1.8334 1.2229-4.7003 2.0819-8.5459 1.877-2.7303-.1456-4.4803-1.3186-5.3894-2.846z" fill-rule="evenodd"/></g></svg>