<svg fill="none" height="60" viewBox="0 0 60 60" width="60" xmlns="http://www.w3.org/2000/svg"><path d="m0 7.5c0-4.14214 3.35786-7.5 7.5-7.5h45c4.1421 0 7.5 3.35786 7.5 7.5v45c0 4.1421-3.3579 7.5-7.5 7.5h-45c-4.14214 0-7.5-3.3579-7.5-7.5z" fill="#df4023"/><path d="m0 45.9375h60v6.5625c0 4.1421-3.3579 7.5-7.5 7.5h-45c-4.14214 0-7.5-3.3579-7.5-7.5z" fill="#c82912"/><path d="m52.5.00000029c4.1421.00000018 7.5 3.35786971 7.5 7.49999971v45.2419c0 4.0086-3.2495 7.2581-7.2581 7.2581-3.758 0-6.8044-3.0464-6.8044-6.8044v-53.1956z" fill="#f85836"/><path d="m45.9375 53.1956c0 3.758 3.0465 6.8044 6.8044 6.8044 4.0086 0 7.2581-3.2495 7.2581-7.2581 0-3.7579-3.0464-6.8044-6.8044-6.8044h-7.2581z" fill="#e54627"/><path clip-rule="evenodd" d="m11.7188 8.90625h14.0624c5.1777 0 9.375 4.19735 9.375 9.37495 0 5.1777-4.1973 9.375-9.375 9.375h-9.375v9.375h-4.6874zm4.6874 14.06255h9.375c2.5889 0 4.6876-2.0987 4.6876-4.6876 0-2.5888-2.0987-4.6874-4.6876-4.6874h-9.375z" fill="#fff" fill-rule="evenodd"/></svg>