<svg xmlns="http://www.w3.org/2000/svg" xmlns:xlink="http://www.w3.org/1999/xlink" width="50" height="50" viewBox="0 0 50 50">
  <defs>
    <clipPath id="clip-path">
      <rect id="矩形_5123" data-name="矩形 5123" width="50" height="50" transform="translate(425 81)" fill="#fff" stroke="#707070" stroke-width="1"/>
    </clipPath>
    <clipPath id="clip-path-2">
      <rect id="SVGID" width="30" height="30" fill="#1965ff"/>
    </clipPath>
  </defs>
  <g id="蒙版组_372" data-name="蒙版组 372" transform="translate(-425 -81)" clip-path="url(#clip-path)">
    <g id="组_1491" data-name="组 1491" transform="translate(-2996.932 -2813.413)">
      <g id="组_1489" data-name="组 1489" transform="translate(3431.932 2904.413)" clip-path="url(#clip-path-2)">
        <path id="路径_12486" data-name="路径 12486" d="M3448.795,2971.913h0l-3.757,3.758c-1.3,1.3-.037,3.742,1.934,3.742h7.236c1.185,0,1.039-1.048.4-1.689Z" transform="translate(-3440.316 -2949.413)" fill="#1965ff" opacity="0.5"/>
        <path id="路径_12487" data-name="路径 12487" d="M3456.6,2904.413h-19.333a5.333,5.333,0,0,0-5.333,5.333v19.333a5.333,5.333,0,0,0,5.333,5.333h.5a1.667,1.667,0,0,0,1.667-1.667v-4.167a1.667,1.667,0,0,1,1.667-1.667h4.167a1.667,1.667,0,0,0,1.667-1.667v-4.167a1.667,1.667,0,0,1,1.667-1.667h4.167a1.667,1.667,0,0,1,1.667,1.667v11.667a1.667,1.667,0,0,0,1.667,1.667h.5a5.333,5.333,0,0,0,5.333-5.333v-19.333A5.334,5.334,0,0,0,3456.6,2904.413Zm-2.167,9.583a1.667,1.667,0,0,1-1.667,1.667H3448.6a1.667,1.667,0,0,1-1.667-1.667v-4.167a1.667,1.667,0,0,1,1.667-1.667h4.167a1.667,1.667,0,0,1,1.667,1.667Z" transform="translate(-3431.932 -2904.413)" fill="#1965ff"/>
      </g>
    </g>
  </g>
</svg>
